<?xml version="1.0" encoding="utf-8"?>
<!-- Generator: Adobe Illustrator 17.1.0, SVG Export Plug-In . SVG Version: 6.00 Build 0)  -->
<!DOCTYPE svg PUBLIC "-//W3C//DTD SVG 1.1//EN" "http://www.w3.org/Graphics/SVG/1.1/DTD/svg11.dtd">
<svg version="1.1" id="Layer_1" xmlns="http://www.w3.org/2000/svg" xmlns:xlink="http://www.w3.org/1999/xlink" x="0px" y="0px"
	 viewBox="0 0 800 128.9" enable-background="new 0 0 800 128.9" xml:space="preserve">
<g>
	<path fill="#00647F" d="M127.6,112c-9.5,9.9-22.6,16.5-35.9,17c-12.9,0-24.5-7.7-22.6-17.2l4.3-20c1.3-6.9-2.1-12.2-8.2-12.2
		s-12,5.4-13.3,12.2l-6.7,30.7c-0.6,3.7-4.1,6.4-7.7,6.4H7.4c-3.7,0-5.8-2.8-5.2-6.4L27,6.7c0.9-3.7,4.3-6.4,7.7-6.4h30.1
		c3.7,0,6,2.8,5.2,6.4L56,72.8c0.9-0.6,1.9-1.1,3-1.5l31.4-41.9c1.7-2.1,4.1-3.7,6.7-3.7h26.6c3.7,0,5.8,3,5.2,6.4l-1.7,8
		c-0.9,3.7-4.3,6.4-7.7,6.4h-15.3c-9.5,0-17.6,8.4-22.6,14.8L76,68.8h21.9c12.9,0,21.7,7.7,19.8,17.2l-3.2,15
		c-1.1,4.5,1.9,8.4,6.4,8.4c3.2,0,6.2-1.7,8.2-4.3L127.6,112z"/>
	<path fill="#00647F" d="M250.9,108.7c-0.9-2.6-3.2-4.3-6.4-4.3c-4.5,0-8.8,3-9.7,7.5c-2.1,9.5-14.2,17-27.1,17h-60.6
		c-12.9,0-21.7-7.7-19.8-17.2L142,43c1.9-9.5,14.2-17.2,27.1-17.2h60.6c12.9,0,21.7,7.7,19.8,17.2l-4.3,20.4
		c-2.1,9.5-14.2,17.2-27.1,17.2h-41l-4.5,21.1c-1.5,6.9,2.1,12.2,8.2,12.2c5.8,0,11.8-5.2,13.3-11.8c1.9-9.5,16.3-12,29.2-12
		c13.3,0,23.9,1.9,29,11.8L250.9,108.7z M196.1,40.8c-6,0-11.8,5.4-13.3,12.2l-3,14.6h21.5l3-14.6C205.8,46.2,202.1,40.8,196.1,40.8
		z"/>
	<path fill="#00647F" d="M380.5,53.1c-9.5,10.1-20.6,9.2-27.1,9.2h-9c-12.9,0-16.3-1.9-18.1-9.5c-1.3-6.4-3.7-11-10.1-11
		c-6.4,0-11.8,4.7-13.1,11c-1.5,7.1-1.1,13.3,6.9,15.9l25.8,8c16.1,4.7,23,8,19.6,23.9l-2.4,11.2c-2.4,11.6-17.2,17.2-27.1,17.2
		h-56.3c-9.9,0-22.1-5.6-19.8-17.2l2.8-12.9c0.6-3.7,4.1-6.4,7.7-6.4h27.9c5.8,0,5.4,4.9,4.5,9.2c-1.3,6.2,1.9,11.2,8.4,11.2
		c6.4,0,11.8-4.9,13.1-11.2c1.5-7.3,1.3-13.1-6.9-15.7l-25.8-8c-16.1-4.7-22.8-8.6-19.6-23.9l2.4-11.2c2.6-11.6,17.2-17.2,27.1-17.2
		h55.9c9.9,0,22.1,5.6,19.8,17.2c-0.9,4.5,1.9,7.5,6.7,7.5c3,0,6-1.7,8.2-4.1L380.5,53.1z"/>
	<path fill="#00647F" d="M412.5,101c-1.1,4.5,1.9,8.4,6.4,8.4c3.2,0,6.2-1.7,8.2-4.3l-1.5,6.9c-9.5,9.9-22.6,16.5-35.9,17
		c-12.9,0-24.5-7.7-22.6-17.2L389.5,6.4c0.9-3.7,4.3-6.4,8-6.4h30.1c3.4,0,5.8,2.8,4.9,6.4L412.5,101z"/>
	<path fill="#00647F" d="M549.2,108.5c-0.9-2.6-3.2-4.3-6.2-4.3c-4.7,0-8.8,3-9.9,7.5c-1.9,9.5-14.2,17.2-27.1,17.2h-60.6
		c-12.9,0-21.7-7.7-19.8-17.2l14.6-68.6c1.9-9.5,14-17.2,26.9-17.2h60.8c12.9,0,21.7,7.7,19.8,17.2l-2.1,9.7
		c-0.6,3.4-4.3,6.4-7.7,6.4h-30.1c-3.7,0-5.8-3-5.2-6.4c1.3-6.7-2.4-11.8-8.2-11.8c-6,0-11.8,5.4-13.3,12l-10.3,48.6
		c-1.5,6.9,2.1,12.2,8.2,12.2c5.8,0,11.8-5.4,13.3-12c1.9-9.5,16.3-12,29.2-12c13.3,0,23.9,1.9,29.2,11.8L549.2,108.5z"/>
	<path fill="#00647F" d="M683.3,53.9c-5.4,5.4-11.6,9.9-18.3,12.9l-9.7,44.9c-1.9,9.5-14.2,17.2-27.1,17.2h-60.6
		c-12.9,0-21.7-7.7-19.8-17.2L562.5,43c1.9-9.5,14.2-17.2,27.1-17.2h60.6c12.9,0,21.7,7.7,19.8,17.2c-0.9,4.5,1.9,8.4,6.4,8.4
		c3.2,0,6.2-1.7,8.2-4.3L683.3,53.9z M616.7,40.8c-6,0-11.8,5.4-13.3,12.2L593,101.6c-1.5,6.9,2.1,12.2,8.2,12.2
		c6,0,11.8-5.4,13.3-12.2l10.3-48.6C626.3,46.2,622.7,40.8,616.7,40.8z"/>
	<path fill="#00647F" d="M780.4,101c-1.1,4.5,1.9,8,6.4,8c3.2,0,6.2-1.7,8.2-4.1l-1.5,6.7c-9.5,10.1-22.6,17-35.9,17.4
		c-8,0-17-3.2-20.4-7.7c-1.5,1.5-3.7,3.2-5.8,4.1c-4.7,1.9-9.7,3.7-15,3.7h-26c-12.9,0-21.7-7.7-19.8-17.2L685.2,43
		c1.9-9.5,14.2-17.2,27.1-17.2h26c5.8,0,10.7,1.5,14.2,4.1l4.9-23.6c0.9-3.7,4.3-6.4,8-6.4h30.1c3.4,0,5.8,2.8,4.9,6.4L780.4,101z
		 M739.4,40.8c-6,0-11.8,5.4-13.3,12.2l-10.3,48.6c-1.5,6.9,2.1,12.2,8.2,12.2c5.8,0,11.8-5.2,13.1-11.6l10.5-49.6
		C749.1,46,745.2,40.8,739.4,40.8z"/>
</g>
</svg>
